<svg width="200" height="175" viewBox="0 0 200 175" fill="none" xmlns="http://www.w3.org/2000/svg">
    <path d="M0 25C0 18.3696 2.63392 12.0107 7.32233 7.32233C12.0107 2.63392 18.3696 0 25 0H175C181.63 0 187.989 2.63392 192.678 7.32233C197.366 12.0107 200 18.3696 200 25V150C200 156.63 197.366 162.989 192.678 167.678C187.989 172.366 181.63 175 175 175H25C18.3696 175 12.0107 172.366 7.32233 167.678C2.63392 162.989 0 156.63 0 150V25ZM118.75 93.75H81.25C79.5924 93.75 78.0027 94.4085 76.8306 95.5806C75.6585 96.7527 75 98.3424 75 100C75 101.658 75.6585 103.247 76.8306 104.419C78.0027 105.592 79.5924 106.25 81.25 106.25H118.75C120.408 106.25 121.997 105.592 123.169 104.419C124.342 103.247 125 101.658 125 100C125 98.3424 124.342 96.7527 123.169 95.5806C121.997 94.4085 120.408 93.75 118.75 93.75ZM39.325 89.325C38.7439 89.9061 38.2829 90.596 37.9685 91.3552C37.654 92.1144 37.4921 92.9282 37.4921 93.75C37.4921 94.5718 37.654 95.3856 37.9685 96.1448C38.2829 96.904 38.7439 97.5939 39.325 98.175C40.4986 99.3486 42.0903 100.008 43.75 100.008C44.5718 100.008 45.3855 99.846 46.1448 99.5315C46.904 99.2171 47.5939 98.7561 48.175 98.175L73.175 73.175C73.757 72.5944 74.2188 71.9047 74.5339 71.1454C74.849 70.3861 75.0112 69.5721 75.0112 68.75C75.0112 67.9279 74.849 67.1139 74.5339 66.3546C74.2188 65.5953 73.757 64.9056 73.175 64.325L48.175 39.325C47.5939 38.7439 46.904 38.2829 46.1448 37.9685C45.3855 37.654 44.5718 37.4921 43.75 37.4921C42.9282 37.4921 42.1145 37.654 41.3552 37.9685C40.596 38.2829 39.9061 38.7439 39.325 39.325C38.7439 39.9061 38.2829 40.596 37.9685 41.3552C37.654 42.1144 37.4921 42.9282 37.4921 43.75C37.4921 44.5718 37.654 45.3856 37.9685 46.1448C38.2829 46.904 38.7439 47.5939 39.325 48.175L59.9125 68.75L39.325 89.325Z" fill="black"/>
</svg>